<svg width="360" height="400" viewBox="0 0 360 400" fill="none" xmlns="http://www.w3.org/2000/svg">
<path d="M133 153H131V155H133V153Z" fill="black"/>
<path d="M147 153H135V155H147V153Z" fill="black"/>
<path d="M133 157H131V159H133V157Z" fill="black"/>
<path d="M147 157H135V159H147V157Z" fill="black"/>
<path d="M133 161H131V163H133V161Z" fill="black"/>
<path d="M147 161H135V163H147V161Z" fill="black"/>
<path d="M133 165H131V167H133V165Z" fill="black"/>
<path d="M147 165H135V167H147V165Z" fill="black"/>
<path d="M173 165H157V167H173V165Z" fill="black"/>
<path d="M171 155V161H159V155H171ZM173 153H157V163H173V153Z" fill="black"/>
<path d="M187 153H183V159H187V153Z" fill="black"/>
<path d="M199 153H195V159H199V153Z" fill="black"/>
<path d="M193 153H189V159H193V153Z" fill="black"/>
<path d="M187 161H183V167H187V161Z" fill="black"/>
<path d="M199 161H195V167H199V161Z" fill="black"/>
<path d="M193 161H189V167H193V161Z" fill="black"/>
<rect x="109.5" y="130.5" width="111" height="59" rx="4.5" stroke="#7B61FF" stroke-dasharray="10 5"/>
<path d="M261 151C258.8 151 257 152.8 257 155V157H254V161H257V169H261V161H264V157H261V155H264V151H261Z" fill="#83B3D3"/>
<path d="M285.6 152.194C287.4 151.694 288.8 152.494 289.4 153.394C290.1 153.194 290.8 152.894 291.5 152.694C291.5 153.594 290.9 154.194 290.6 154.494C291.3 154.594 292 153.894 292 153.894C291.8 154.894 290.9 155.694 290.3 155.894C290.1 162.694 287 167.094 279.7 166.994C279.1 166.994 279.8 166.994 279.2 166.994C278.8 166.994 274.8 166.494 274 165.094C276.4 165.294 278.1 164.694 279 163.894C278 163.594 276.1 163.494 275.8 160.994C276.2 161.094 276.4 161.194 277.1 161.094C275.8 160.294 274.4 159.494 274.5 157.294C274.8 157.594 275.6 157.794 275.9 157.794C275.1 157.594 273.8 154.494 274.9 152.894C276.8 154.794 278.9 156.494 282.5 156.694C282.7 154.294 283.7 152.794 285.6 152.194Z" fill="#83B3D3"/>
<path fill-rule="evenodd" clip-rule="evenodd" d="M319.814 153.418C320.675 153.649 321.351 154.325 321.582 155.186C321.998 156.745 322 160 322 160C322 160 322 163.255 321.582 164.814C321.351 165.675 320.675 166.352 319.814 166.582C318.255 167.001 312 167.001 312 167.001C312 167.001 305.745 167.001 304.186 166.582C303.325 166.352 302.649 165.675 302.418 164.814C302 163.255 302 160 302 160C302 160 302 156.745 302.418 155.186C302.649 154.325 303.325 153.649 304.186 153.418C305.745 153 312 153 312 153C312 153 318.255 153 319.814 153.418ZM315.194 160.001L309.998 163V157.001L315.194 160.001Z" fill="#83B3D3"/>
<rect x="229.5" y="130.5" width="112" height="59" rx="4.5" stroke="#7B61FF" stroke-dasharray="10 5"/>
<path d="M76 155L69.5 162.4L66.1 158.5L65 159.7L69.5 164.9L77.2 156.3L76 155Z" fill="black"/>
<path d="M43 160C43 157.239 45.2386 155 48 155C50.7614 155 53 157.239 53 160C53 162.761 50.7614 165 48 165C45.2386 165 43 162.761 43 160Z" fill="black"/>
<rect x="18.5" y="130.5" width="82" height="59" rx="4.5" stroke="#7B61FF" stroke-dasharray="10 5"/>
<path fill-rule="evenodd" clip-rule="evenodd" d="M80.0001 28.3787L42.4395 65.9393L44.5608 68.0606L52.0001 60.6213V98H48.0001V101H113V98H108V60.6213L115.439 68.0606L117.561 65.9393L108 56.3787V29H94.0001V42.3787L80.0001 28.3787ZM97.0001 45.3787L105 53.3787V32H97.0001V45.3787ZM105 57.6213L80.0001 32.6213L55.0001 57.6213V98H105V57.6213ZM72 70V94H88V70H72ZM75 91V73H85V91H75ZM59 70H62V74H59V70ZM68 70H65V74H68V70ZM59 76H62V80H59V76ZM68 76H65V80H68V76ZM92 70H95V74H92V70ZM101 70H98V74H101V70ZM92 76H95V80H92V76ZM101 76H98V80H101V76ZM75 56C75 53.2386 77.2386 51 80 51C82.7614 51 85 53.2386 85 56C85 58.7614 82.7614 61 80 61C77.2386 61 75 58.7614 75 56ZM80 48C75.5817 48 72 51.5817 72 56C72 60.4183 75.5817 64 80 64C84.4183 64 88 60.4183 88 56C88 51.5817 84.4183 48 80 48Z" fill="#81B3D2"/>
<path d="M204.9 77.7H194.3H149.6H139.1C136.8 77.7 135 79.6 135 82V85.5C135 87.9 136.9 89.7999 139.1 89.7999H140V90.9C140 96.4 144.3 101 149.6 101H194.2C199.5 101 203.8 96.5 203.8 90.9V89.7999H204.7C207 89.7999 208.8 87.9 208.8 85.5V82C209 79.7 207.1 77.7 204.9 77.7ZM201 90.9C201 94.8 198 97.9 194.3 97.9H149.6C145.9 97.9 142.9 94.7 142.9 90.9V89.7999H201V90.9ZM206.1 85.5C206.1 86.2 205.5 86.7999 204.9 86.7999H203.9H201H143H140H139C138.3 86.7999 137.8 86.2 137.8 85.5V82C137.8 81.3 138.4 80.7 139 80.7H142.7H149.6H194.2H201.1H204.8C205.5 80.7 206 81.3 206 82C206.1 82 206.1 85.5 206.1 85.5Z" fill="#83B3D3"/>
<path d="M150.6 69.4001L156 73.5001L161.3 69.4001L166.6 73.5001L171.9 69.4001L177.3 73.5001L182.6 69.4001L187.9 73.5001L193.3 69.4001L198.6 73.5001L204.8 68.8001L203.1 66.3001L198.6 69.7001L193.3 65.6001L187.9 69.7001L182.6 65.6001L177.3 69.7001L171.9 65.6001L166.6 69.7001L161.3 65.6001L156 69.7001L150.6 65.6001L145.3 69.7001L140.8 66.3001L139.1 68.8001L145.3 73.5001L150.6 69.4001Z" fill="#83B3D3"/>
<path d="M143 62.5H200.9H203.8C203.8 61.9 203.9 61.3 203.9 60.6C203.9 60.2 203.9 59.8 203.9 59.4C203.2 43.7 189.2 31 172 31C154.7 31 140.7 43.7 140 59.5C140 59.9 140 60.3 140 60.7C140 61.3 140 62 140.1 62.6H143V62.5ZM172 34C187.6 34 200.4 45.3 201 59.5H143C143.6 45.4 156.4 34 172 34Z" fill="#83B3D3"/>
<path d="M172 48.3C173.049 48.3 173.9 47.4046 173.9 46.3C173.9 45.1955 173.049 44.3 172 44.3C170.951 44.3 170.1 45.1955 170.1 46.3C170.1 47.4046 170.951 48.3 172 48.3Z" fill="#83B3D3"/>
<path d="M164.2 43.2C165.249 43.2 166.1 42.3045 166.1 41.2C166.1 40.0954 165.249 39.2 164.2 39.2C163.151 39.2 162.3 40.0954 162.3 41.2C162.3 42.3045 163.151 43.2 164.2 43.2Z" fill="#83B3D3"/>
<path d="M179.7 43.2C180.749 43.2 181.6 42.3045 181.6 41.2C181.6 40.0954 180.749 39.2 179.7 39.2C178.651 39.2 177.8 40.0954 177.8 41.2C177.8 42.3045 178.651 43.2 179.7 43.2Z" fill="#83B3D3"/>
<path d="M293.1 47.5H293H268.3C282.1 40.6 283.2 36.2 282.7 33.8C281.5 29.8 277 26.8 272.7 28.4C267.1 30.5 265.6 38.8 264.1 44.8C262.1 38.7 260.3 31 255.9 27.1C254.6 26 252.8 24.8 250.1 25.1C246.1 25.5 240.3 30.5 242.6 36.1C244.9 41.5 252.3 44.9 257.2 47.6H235.2H234.9C233.3 47.6 232 48.9 232 50.5V61.8C232 63.4 233.3 64.7 234.9 64.7H235.2V98V100.4V101H293V100.5V98V64.6H293.1C294.7 64.6 296 63.3 296 61.7V50.4C296 48.8 294.7 47.5 293.1 47.5ZM274.4 30.9C276.5 30.6 279.4 32.2 279.7 34.1C280.1 36.9 276.3 39.4 274.6 40.5C272.1 42.2 269.7 43.1 267.3 44.6C268.2 40.9 269.8 31.6 274.4 30.9ZM251.5 40.9C249.3 39.4 245 36.5 245.1 33.1C245.2 29.5 250.8 26.5 253.9 29.2C257.8 32.6 259.6 40.3 261 45.8C257.8 44.3 254.7 43 251.5 40.9ZM257.5 98H238.1V64.6H257.5V98ZM257.5 61.5H235V50.5H257.5V61.5ZM267.7 61.5V64.5V98H260.5V64.6V61.6V50.6H267.7V61.5ZM290 98H270.6V64.6H290V98ZM292.9 61.5H270.6V50.5H292.9V61.5Z" fill="#83B3D3"/>
<rect x="18.5" y="0.5" width="307" height="123" rx="4.5" stroke="#7B61FF" stroke-dasharray="10 5"/>
<path d="M97.75 228C98.05 228 98.25 227.8 98.25 227.5C98.25 227.2 98.05 227 97.75 227C97.45 227 97.25 227.2 97.25 227.5C97.25 227.8 97.45 228 97.75 228Z" fill="black"/>
<path d="M107 220H105V218H104V220H96V218H95V220H93C92.4 220 92 220.4 92 221V232C92 232.5 92.4 233 93 233H107C107.5 233 108 232.5 108 232V221C108 220.4 107.5 220 107 220ZM107 232H93V225H107V232ZM93 224V221H95V223H96V221H104V223H105V221H107V224H93Z" fill="black"/>
<path d="M100 228C100.3 228 100.5 227.8 100.5 227.5C100.5 227.2 100.3 227 100 227C99.7 227 99.5 227.2 99.5 227.5C99.5 227.8 99.7 228 100 228Z" fill="black"/>
<path d="M102.25 228C102.55 228 102.75 227.8 102.75 227.5C102.75 227.2 102.55 227 102.25 227C101.95 227 101.75 227.2 101.75 227.5C101.75 227.8 101.95 228 102.25 228Z" fill="black"/>
<path d="M97.75 229C97.45 229 97.25 229.2 97.25 229.5C97.25 229.8 97.45 230 97.75 230C98.05 230 98.25 229.8 98.25 229.5C98.25 229.2 98.05 229 97.75 229Z" fill="black"/>
<path d="M95.5 228C95.8 228 96 227.8 96 227.5C96 227.2 95.8 227 95.5 227C95.2 227 95 227.2 95 227.5C95 227.8 95.2 228 95.5 228Z" fill="black"/>
<path d="M95.5 229C95.2 229 95 229.2 95 229.5C95 229.8 95.2 230 95.5 230C95.8 230 96 229.8 96 229.5C96 229.2 95.8 229 95.5 229Z" fill="black"/>
<path d="M100 229C99.7 229 99.5 229.2 99.5 229.5C99.5 229.8 99.7 230 100 230C100.3 230 100.5 229.8 100.5 229.5C100.5 229.2 100.3 229 100 229Z" fill="black"/>
<path d="M102.25 229C101.95 229 101.75 229.2 101.75 229.5C101.75 229.8 101.95 230 102.25 230C102.55 230 102.75 229.8 102.75 229.5C102.75 229.2 102.55 229 102.25 229Z" fill="black"/>
<path d="M104.5 228C104.8 228 105 227.8 105 227.5C105 227.2 104.8 227 104.5 227C104.2 227 104 227.2 104 227.5C104 227.8 104.2 228 104.5 228Z" fill="black"/>
<path d="M104.5 229C104.2 229 104 229.2 104 229.5C104 229.8 104.2 230 104.5 230C104.8 230 105 229.8 105 229.5C105 229.2 104.8 229 104.5 229Z" fill="black"/>
<path d="M185.3 220.3H170.6C170.3 220.3 170 220.5 170 220.8C170 221.1 170.3 221.4 170.6 221.4H172.3V233.4C172.3 233.7 172.6 234 172.9 234H183.1C183.4 234 183.7 233.7 183.7 233.4V221.4H185.4C185.7 221.4 186 221.1 186 220.8C186 220.5 185.6 220.3 185.3 220.3ZM182.5 232.8H173.4V221.4H182.5V232.8Z" fill="black"/>
<path d="M176.2 219.2H179.6C179.9 219.2 180.2 218.9 180.2 218.6C180.2 218.3 180 218 179.7 218H176.2C175.9 218 175.7 218.3 175.7 218.6C175.7 218.9 175.9 219.2 176.2 219.2Z" fill="black"/>
<path d="M176.2 230C176.5 230 176.8 229.7 176.8 229.4V223.7C176.8 223.4 176.5 223.1 176.2 223.1C175.9 223.1 175.6 223.4 175.6 223.7V229.4C175.7 229.7 175.9 230 176.2 230Z" fill="black"/>
<path d="M179.7 230C180 230 180.3 229.7 180.3 229.4V223.7C180.3 223.4 180 223.1 179.7 223.1C179.4 223.1 179.1 223.5 179.1 223.7V229.4C179.1 229.7 179.3 230 179.7 230Z" fill="black"/>
<path fill-rule="evenodd" clip-rule="evenodd" d="M224.22 223.345C224.513 223.052 224.987 223.052 225.28 223.345L230 228.064L234.72 223.345C235.013 223.052 235.487 223.052 235.78 223.345C236.073 223.638 236.073 224.112 235.78 224.405L230.53 229.655C230.237 229.948 229.763 229.948 229.47 229.655L224.22 224.405C223.927 224.112 223.927 223.638 224.22 223.345Z" fill="black"/>
<path d="M151.9 235C151.6 235 151.3 234.9 151.1 234.6C145.7 228.5 144.4 227.1 144.1 226.7C143.4 225.8 143 224.6 143 223.4C143 220.4 145.4 218 148.5 218C149.8 218 151 218.5 152 219.3C153 218.5 154.3 218 155.5 218C158.5 218 161 220.4 161 223.4C161 224.7 160.5 225.9 159.7 226.8L152.7 234.7C152.5 234.9 152.3 235 151.9 235ZM145.9 225.5C146.2 225.9 149.4 229.5 152 232.4L158.2 225.4C158.7 224.9 158.9 224.2 158.9 223.4C158.9 221.6 157.4 220.1 155.6 220.1C154.6 220.1 153.6 220.6 152.9 221.4C152.6 221.7 152.3 221.8 152 221.8C151.7 221.8 151.4 221.6 151.2 221.4C150.5 220.6 149.5 220.1 148.5 220.1C146.7 220.1 145.2 221.6 145.2 223.4C145.1 224.3 145.5 225 145.9 225.5C145.8 225.5 145.8 225.5 145.9 225.5Z" fill="black"/>
<path d="M256 219L250 224.8V231H262V224.8L256 219ZM261 230H251V225.2L256 220.4L261 225.2V230Z" fill="white"/>
<path d="M254 229H255V226.5H257V229H258V225.5H254V229Z" fill="white"/>
<path fill-rule="evenodd" clip-rule="evenodd" d="M307 220H309V222H307V220ZM309 232H307V223H309V232Z" fill="black"/>
<path d="M67 225V227H81V225H67Z" fill="black"/>
<path d="M211 220.292L209.708 219L204 224.708L198.292 219L197 220.292L202.708 226L197 231.708L198.292 233L204 227.292L209.708 233L211 231.708L205.292 226L211 220.292Z" fill="black"/>
<path d="M55 225H49V219H47V225H41V227H47V233H49V227H55V225Z" fill="black"/>
<path d="M135.5 234.008L131.8 230.329C132.8 229.036 133.5 227.345 133.5 225.456C133.5 221.08 129.9 217.5 125.5 217.5C121.1 217.5 117.5 221.18 117.5 225.555C117.5 229.931 121.1 233.511 125.5 233.511C127.3 233.511 129 232.914 130.4 231.82L134.1 235.5L135.5 234.008ZM125.5 231.522C122.2 231.522 119.5 228.837 119.5 225.555C119.5 222.273 122.2 219.588 125.5 219.588C128.8 219.588 131.5 222.273 131.5 225.555C131.5 228.837 128.8 231.522 125.5 231.522Z" fill="black"/>
<path d="M282 218L284.1 224.5H291L285.4 228.5L287.6 235L282 231L276.4 235L278.6 228.5L273 224.5H279.9L282 218Z" fill="black"/>
<rect x="18.5" y="196.5" width="323" height="60" rx="4.5" stroke="#7B61FF" stroke-dasharray="10 5"/>
<g clip-path="url(#clip0_18711_847)">
<path fill-rule="evenodd" clip-rule="evenodd" d="M45.9999 296.2C46.7999 295.2 47.9999 294.5 49.5999 294.5C52.2999 294.5 54.1999 296.4 54.0999 299.4V305.5H52.0999V299.8C52.0999 298 50.9999 296.6 49.1999 296.6C47.1999 296.6 45.8999 298.1 45.8999 300.2V305.5H43.8999V290H45.8999V296.2H45.9999ZM38 305.5V302.9H40.5V305.5H38ZM64.5999 294.8H59.7999V291.1H57.7999V294.9H55.8999V296.9H57.7999V302.9C57.7999 304.6 58.7999 305.6 60.4999 305.6H64.5999V303.6H60.8999C60.1999 303.6 59.7999 303.2 59.7999 302.5V296.8H64.5999V294.8ZM75.6 296.7C76.2 295.4 77.5 294.6 79.1 294.6C81.6 294.6 83.1 296.4 83 298.9V305.4H81V299.1C81 297.5 80.1 296.5 78.6 296.5C77.4 296.5 76 297.4 76 299.8V305.4H74V299.1C74 297.5 73.1 296.5 71.6 296.5C70 296.5 69 298 69 300V305.4H67V294.8H68.9V296.4H69C69.6 295.4 70.7 294.6 72.1 294.6C73.7 294.6 74.9 295.5 75.5 296.7H75.6ZM85.8 302.7C85.8 304.4 86.8 305.4 88.6 305.4H90.6V303.4H88.9001C88.2001 303.4 87.8 303 87.8 302.3V290H85.8V302.7ZM63.0001 307.9C64.7001 307.9 66.0001 308.6 66.9001 309.7V308.2H68.9001V318.8H66.9001V317.2H66.8001C66.0001 318.3 64.8001 319.1 63.0001 319.1C59.9001 319.1 57.6001 316.8 57.6001 313.5C57.6001 310.2 59.9001 307.9 63.0001 307.9ZM59.7001 313.5C59.7001 315.5 61.1001 317.1 63.3001 317.1C65.5001 317.1 66.9001 315.4 66.9001 313.5C66.9001 311.5 65.5001 309.9 63.3001 309.9C61.1001 309.9 59.7001 311.5 59.7001 313.5ZM82.2 312C81.7 309.6 79.5999 307.9 76.7999 307.9C73.3999 307.9 71.2 310.4 71.2 313.5C71.2 316.6 73.3999 319.1 76.7999 319.1C79.5999 319.1 81.7 317.3 82.2 314.9H80.0999C79.7 316.2 78.3999 317.2 76.7999 317.2C74.5999 317.2 73.2 315.6 73.2 313.6C73.2 311.6 74.5999 310 76.7999 310C78.3999 310 79.5999 311 80.0999 312.2H82.2V312ZM89.2001 307.9C90.9001 307.9 92.2001 308.6 93.1 309.7V308.2H95.1V318.8H93.1V317.2H93C92.2001 318.3 91 319.1 89.2001 319.1C86.1001 319.1 83.8 316.8 83.8 313.5C83.8 310.2 86.1001 307.9 89.2001 307.9ZM85.9001 313.5C85.9001 315.5 87.3 317.1 89.5 317.1C91.6 317.1 93.1 315.4 93.1 313.5C93.1 311.5 91.7001 309.9 89.5 309.9C87.3 309.9 85.9001 311.5 85.9001 313.5ZM106.7 309.8C105.8 308.7 104.5 307.9 102.8 307.9C99.6999 307.9 97.3999 310.2 97.3999 313.5C97.3999 316.8 99.5999 319.1 102.8 319.1C104.5 319.1 105.8 318.3 106.6 317.3H106.7V318.8H108.7V303.4H106.7V309.8ZM103.1 317.1C100.9 317.1 99.4999 315.5 99.4999 313.5C99.4999 311.5 100.9 309.9 103.1 309.9C105.3 309.9 106.7 311.5 106.7 313.5C106.6 315.5 105.2 317.1 103.1 317.1ZM110.8 313.5C110.8 310.4 113 307.9 116.3 307.9C119.8 307.9 122 310.6 121.8 314.2H113C113.1 315.8 114.5 317.1 116.4 317.1C117.8 317.1 118.9 316.5 119.4 315.5H121.5C120.8 317.8 118.8 319.1 116.3 319.1C112.9 319.1 110.8 316.5 110.8 313.5ZM119.6 312.4C119.3 310.8 118 309.8 116.3 309.8C114.6 309.8 113.4 310.9 113.1 312.4H119.6ZM136.2 307.9C134.6 307.9 133.3 308.7 132.6 309.9H132.5C131.9 308.7 130.7 307.9 129.1 307.9C127.7 307.9 126.6 308.6 126 309.7V308.2H124.1V318.8H126.1V313.4C126.1 311.4 127.1 310 128.7 309.9C130.2 309.9 131.1 310.9 131.1 312.5V318.8H133.1V313.2C133.1 310.8 134.5 309.9 135.7 309.9C137.2 309.9 138.1 310.9 138.1 312.5V318.8H140.1V312.3C140.2 309.7 138.7 307.9 136.2 307.9ZM143.8 308.1L147.4 317L150.8 308.1H152.9L148.2 320.3C147.5 322.1 146.5 322.9 144.7 322.9H142.2V320.9H144.7C145.7 320.9 146.1 320.6 146.4 319.7L141.6 308.1H143.8Z" fill="black"/>
</g>
<g clip-path="url(#clip1_18711_847)">
<path d="M311 283H173L232.5 348.7C237.7 354.5 246.3 354.5 251.5 348.7L311 283Z" fill="#81B3D3"/>
<path d="M209.7 283.5L241.8 321.4L273.8 283.7L209.7 283.5Z" fill="#23A9E1"/>
<path d="M270.6 286.6V284.2H272.7L270.6 286.6ZM221.4 296C221.5 296.1 223.8 293.6 227.5 291.1C230.9 288.8 236.1 286.2 241.9 286.2C247.7 286.2 253 288.9 256.4 291.2C260.1 293.6 262.4 296 262.5 296.1L260 299.1C255.5 299.7 252.3 303 247.9 302.3C245.7 301.9 245.6 300.7 245 299.4C244.5 298.4 243.7 298.6 242.7 298.2C241.8 297.8 241.2 297.1 239.3 297.5C237.7 297.9 237.5 300.4 235.4 300.3C234.3 300.2 234.2 298.7 232.6 296.7C228.5 291.8 224.761 292.41 222.161 296.91L221.4 296ZM213 284.2V286.1L211.4 284.2H213ZM266.9 284.2H270.1V287.2L266.9 291V284.2ZM262.8 295.6V284.2H266.3V291.6L262.8 295.6ZM262.3 285.2V295.1C261.2 294 260 293 258.7 292.1L262.3 285.2ZM258.2 284.9V291.7C257.7 291.4 257.3 291 256.7 290.7C256 290.3 255.3 289.8 254.5 289.4L258.2 284.9ZM253.8 284.7V289C252.8 288.5 251.7 288 250.7 287.5L253.8 284.7ZM254.4 284.2H258.1L254.4 288.8V284.2ZM258.7 284.2H262.3L258.7 291.3V284.2ZM249.9 284.2H253.8L250.3 287.3C250.2 287.3 250.1 287.2 250 287.2L249.9 284.2ZM249.4 284.6V287C248.4 286.6 247.4 286.3 246.3 286.1L249.4 284.6ZM245.2 284.6V285.9C244.5 285.8 243.8 285.7 243 285.6L245.2 284.6ZM238.4 284.6L240.6 285.6C239.8 285.6 239.1 285.7 238.4 285.9V284.6ZM234.3 284.6L237.4 286.1C236.3 286.3 235.3 286.6 234.3 287V284.6ZM237.9 285.8L234.6 284.2H237.9V285.8ZM241.4 285.4L238.6 284.1H241.4V285.4ZM242.1 284.2H245L242.1 285.5V284.2ZM245.8 284.2H249L245.8 285.8V284.2ZM233.4 287.3L229.9 284.2H233.8V287.2L233.4 287.3ZM229.8 284.7L232.9 287.4C231.8 287.8 230.8 288.3 229.8 288.9V284.7ZM225.5 284.9L229.1 289.4C227.8 290.1 226.6 290.9 225.5 291.8V284.9ZM221.3 285.2L224.9 292.2C223.6 293.2 222.4 294.2 221.3 295.4V285.2ZM225 291.2L221.4 284.1H225V291.2ZM229.3 288.7L225.6 284.1H229.3V288.7ZM216.7 290.5L213.5 286.7V284.2H216.7V290.5ZM217.3 284.2H220.8V295.4L217.3 291.2V284.2ZM209 283V297.6L242 337.5L275 298V283H209Z" fill="#491213"/>
<path d="M239.4 329L242 324.8L244.6 329L242 333.2L239.4 329Z" fill="#23A9E1"/>
<path d="M247.2 313.6C243.8 311.6 244.6 310.1 247.4 308.7C248.9 308 252.2 305.3 253.5 306.2L247.2 313.6ZM244.9 316.1C242.9 316 240.6 315.7 238.6 316.2C239.8 316.5 242.8 317.4 240 318.1C241 319.5 242.6 319.4 243.6 318.2C243.2 318 242.9 317.7 242.6 317.5C243.7 317.2 244.7 316.6 244.9 316.1ZM246.1 314.5C245.2 313.7 244.2 313.7 243.4 314.5C242.2 312.4 238 313.1 236 312.8C237.1 315.4 245.6 315.9 246.1 314.5ZM239.3 312.3C237.7 311.8 232.5 311.9 235.9 310.5C237 310.1 242.6 310.6 239.3 312.3ZM241.3 309.3C240.8 308.2 241.7 306.9 243 307.9C244.2 308.7 242.4 309.9 241.3 309.3ZM238.4 309.4C236.1 310.1 233.1 308.6 236.8 307.9C239.1 307.4 241.5 308.4 238.4 309.4C238.3 309.4 238.5 309.4 238.4 309.4ZM235.8 303.2C235.3 304.8 234.3 305.1 234.4 303.2C234.5 300.9 236 301.5 237.6 300.6C238.9 299.9 239.6 297.2 241.9 298.8C242.9 299.5 244.1 298.9 244.4 300C244.4 299.9 241.5 306.7 243.1 306.7C239.9 306.7 241.3 302.9 242.5 300.3C241.3 300.9 239.4 304.6 241 305.3C240.2 306.4 237.6 307.9 236.3 306.8C235.2 305.8 235.8 304.5 235.8 303.2ZM231.8 306C226.2 306 230 297.4 231.9 297.9C234.1 298.6 233.8 306.1 231.8 306ZM225.6 297.8C223 297.7 224.1 295.2 225.9 294.7C227.6 294.2 231.1 295.8 232.3 296.9C230.5 297.5 228.2 297.4 226.2 297.5C226 295.5 225.5 296.2 225.6 297.8Z" fill="#DC6243"/>
<path d="M244.8 308.8C241.9 305.8 249.1 306.1 250.3 305C251.1 305.3 257.3 299.6 258.8 300C257.7 301.3 255.4 305.3 253.8 305.3C252.5 305.3 251.2 305.1 250.2 306C248.7 307.4 246.3 308.1 244.8 308.8Z" fill="#F49774"/>
<path d="M245.7 305.2C244.1 306.1 242.6 302.7 245.4 303C247.2 303.2 249.1 302.8 250.8 303.1C249.5 304.6 247.7 305.4 245.7 305.2Z" fill="#F4B1A4"/>
</g>
<rect x="18.5" y="263.5" width="318" height="109" rx="4.5" stroke="#7B61FF" stroke-dasharray="10 5"/>
<defs>
<clipPath id="clip0_18711_847">
<rect width="114.9" height="32.9" fill="white" transform="translate(38 290)"/>
</clipPath>
<clipPath id="clip1_18711_847">
<rect width="138" height="70" fill="white" transform="translate(173 283)"/>
</clipPath>
</defs>
</svg>
